<svg width="30" height="30" viewBox="0 0 30 30" fill="none" xmlns="http://www.w3.org/2000/svg">
<path fill-rule="evenodd" clip-rule="evenodd" d="M14.9999 0C6.71676 0 0 6.71527 0 14.9999C0 21.6275 4.29792 27.2498 10.2578 29.2335C11.0072 29.3726 11.2824 28.9081 11.2824 28.5119C11.2824 28.1542 11.2685 26.9726 11.2621 25.7192C7.0891 26.6266 6.20855 23.9494 6.20855 23.9494C5.52622 22.2157 4.54308 21.7546 4.54308 21.7546C3.1819 20.8237 4.64567 20.843 4.64567 20.843C6.15167 20.9486 6.94503 22.3888 6.94503 22.3888C8.28287 24.6814 10.4541 24.0187 11.31 23.6357C11.4446 22.6662 11.8334 22.0043 12.2624 21.6297C8.93067 21.2509 5.4281 19.9645 5.4281 14.2169C5.4281 12.5793 6.01431 11.2412 6.97384 10.1905C6.81785 9.81296 6.30443 8.28734 7.1189 6.22122C7.1189 6.22122 8.37825 5.81808 11.2447 7.75876C12.4414 7.42617 13.7249 7.259 14.9999 7.25329C16.2741 7.259 17.5583 7.42567 18.7573 7.75827C21.6203 5.81758 22.8781 6.22072 22.8781 6.22072C23.6946 8.28659 23.1812 9.81246 23.0254 10.19C23.9872 11.2407 24.5692 12.5788 24.5692 14.2164C24.5692 19.9776 21.0601 21.2459 17.72 21.6175C18.2583 22.083 18.7377 22.9961 18.7377 24.3953C18.7377 26.4023 18.7203 28.0176 18.7203 28.5116C18.7203 28.9108 18.9905 29.3785 19.7506 29.2312C25.707 27.2456 30 21.625 30 14.9999C29.9998 6.71576 23.2837 0 14.9999 0Z" fill="black"/>
<path d="M5.68104 21.5363C5.648 21.6108 5.53076 21.6331 5.42395 21.5822C5.31466 21.5335 5.2538 21.4319 5.28908 21.3572C5.32137 21.2802 5.43886 21.2591 5.5474 21.3105C5.6567 21.3594 5.71879 21.462 5.68079 21.5365L5.68104 21.5363ZM6.2886 22.2141C6.21732 22.2804 6.07747 22.2496 5.98259 22.1446C5.88422 22.0402 5.86584 21.9004 5.93862 21.8331C6.01264 21.767 6.14826 21.7983 6.24663 21.9026C6.34449 22.0085 6.36387 22.1471 6.28885 22.2144L6.2886 22.2141ZM6.88027 23.0778C6.78837 23.1419 6.63784 23.082 6.54494 22.9486C6.45304 22.815 6.45304 22.6548 6.54743 22.5909C6.64008 22.5269 6.78837 22.5847 6.88276 22.7169C6.97417 22.8522 6.97416 23.0127 6.88027 23.0778ZM7.69028 23.9126C7.60831 24.0033 7.43294 23.9789 7.30477 23.8555C7.17387 23.7345 7.13736 23.5624 7.21958 23.472C7.30304 23.3811 7.47915 23.4064 7.60806 23.5291C7.73896 23.6498 7.77846 23.8222 7.69078 23.9124L7.69028 23.9126ZM8.80804 24.3972C8.77153 24.5147 8.60312 24.5681 8.43297 24.518C8.26332 24.4665 8.15229 24.3292 8.18706 24.2104C8.22184 24.092 8.39149 24.0366 8.56263 24.09C8.73228 24.1411 8.84331 24.2778 8.80804 24.3972ZM10.0358 24.4869C10.0401 24.6106 9.896 24.7129 9.7179 24.7154C9.53831 24.7197 9.393 24.6193 9.39126 24.4976C9.39126 24.3726 9.53235 24.2716 9.71169 24.2681C9.88979 24.2648 10.0361 24.3642 10.0361 24.4867L10.0358 24.4869ZM11.1779 24.2927C11.1993 24.4131 11.0754 24.5371 10.8983 24.5701C10.7244 24.6024 10.5629 24.5274 10.5406 24.4079C10.5192 24.2842 10.6454 24.1603 10.8193 24.1282C10.9966 24.0977 11.1556 24.1702 11.1779 24.2927Z" fill="black"/>
</svg>
