<svg width="30" height="22" viewBox="0 0 30 22" fill="none" xmlns="http://www.w3.org/2000/svg">
<path d="M30 3.00517V19.9998C30 21.1044 29.085 21.9988 27.955 21.9988H23.1813V10.6698L15 16.6691L6.81875 10.6698V22H2.045C1.77634 22 1.51032 21.9483 1.26212 21.8477C1.01393 21.7472 0.788437 21.5998 0.598525 21.4141C0.408613 21.2283 0.258005 21.0078 0.155308 20.7652C0.0526105 20.5225 -0.000163835 20.2624 3.82064e-07 19.9998V3.00517C3.82064e-07 0.533374 2.88625 -0.877859 4.90875 0.605463L6.81875 2.00692L15 8.00375L23.1813 2.00448L25.0912 0.605463C27.1125 -0.876637 30 0.533374 30 3.00517Z" fill="black"/>
</svg>
