<svg width="30" height="30" viewBox="0 0 30 30" fill="none" xmlns="http://www.w3.org/2000/svg">
<g clip-path="url(#clip0_50_355)">
<path fill-rule="evenodd" clip-rule="evenodd" d="M23.5321 -0.000244141C27.1041 -0.000244141 30 2.8957 30 6.46777V23.5319C30 27.104 27.1041 29.9998 23.5321 29.9998H6.46807C2.89587 29.9998 0 27.104 0 23.5319V6.49085C0 2.90598 2.90623 -0.000244141 6.49103 -0.000244141H23.5321ZM19.7281 3.8038H10.3617C8.64015 3.8038 6.98921 4.48768 5.7719 5.70495C4.55458 6.92221 3.87066 8.57335 3.87066 10.2949V19.6612C3.87066 21.3765 4.55216 23.0216 5.76517 24.2346C6.97817 25.4476 8.62324 26.1292 10.3387 26.1292H19.7281C21.4436 26.1292 23.0886 25.4476 24.3016 24.2346C25.5146 23.0216 26.1961 21.3765 26.1961 19.6612V10.2718C26.1961 8.55647 25.5146 6.91115 24.3016 5.69816C23.0886 4.48516 21.4436 3.8038 19.7281 3.8038ZM19.7577 5.91927C22.1304 5.91927 24.0539 7.84272 24.0539 10.2154V19.6876C24.0539 22.0602 22.1304 23.9837 19.7577 23.9837H10.2588C7.88632 23.9837 5.96282 22.0602 5.96282 19.6876V10.2129C5.96282 9.07414 6.41525 7.98198 7.22035 7.17687C8.02562 6.37176 9.11762 5.91927 10.2564 5.91927H19.7577ZM15 9.28051C11.8435 9.28051 9.28075 11.8432 9.28075 14.9999C9.28075 18.1565 11.8435 20.7192 15 20.7192C18.1565 20.7192 20.7192 18.1565 20.7192 14.9999C20.7192 11.8432 18.1565 9.28051 15 9.28051ZM15 11.3201C17.0215 11.3201 18.6626 12.969 18.6626 14.9999C18.6626 17.0308 17.0215 18.6794 15 18.6794C12.9786 18.6794 11.3373 17.0308 11.3373 14.9999C11.3373 12.969 12.9786 11.3201 15 11.3201ZM20.9804 7.67398C20.2243 7.67398 19.6105 8.29076 19.6105 9.05028C19.6105 9.81001 20.2243 10.4266 20.9804 10.4266C21.7365 10.4266 22.3503 9.81001 22.3503 9.05028C22.3503 8.29076 21.7365 7.67398 20.9804 7.67398Z" fill="black"/>
</g>
<defs>
<clipPath id="clip0_50_355">
<rect width="30" height="30" fill="white"/>
</clipPath>
</defs>
</svg>
