<svg width="30" height="30" viewBox="0 0 30 30" fill="none" xmlns="http://www.w3.org/2000/svg">
<path d="M27.7869 0.000113606H2.21311C1.63286 -0.00579163 1.07397 0.218729 0.659063 0.624411C0.244158 1.03009 0.00713392 1.5838 0 2.16403V27.8409C0.00842406 28.4203 0.246015 28.9727 0.66078 29.3773C1.07554 29.782 1.6337 30.0058 2.21311 29.9999H27.7869C28.3672 30.0045 28.9257 29.7792 29.3404 29.3733C29.7551 28.9673 29.9922 28.4138 30 27.8335V2.15665C29.9897 1.57812 29.7514 1.02706 29.337 0.623238C28.9225 0.219418 28.3655 -0.00451463 27.7869 0.000113606ZM8.89426 25.5737H4.44098V11.2451H8.89426V25.5737ZM6.68115 9.29267C6.17038 9.29315 5.67094 9.14214 5.24601 8.85873C4.82109 8.57531 4.48977 8.17224 4.29397 7.70049C4.09817 7.22875 4.04669 6.70953 4.14603 6.20851C4.24538 5.7075 4.4911 5.24721 4.85209 4.88588C5.21309 4.52454 5.67315 4.27839 6.17407 4.17856C6.67499 4.07874 7.19426 4.12973 7.6662 4.32508C8.13813 4.52042 8.54153 4.85136 8.82534 5.27601C9.10916 5.70066 9.26066 6.19995 9.26066 6.71072C9.26001 7.0502 9.19243 7.38622 9.06177 7.69955C8.93111 8.01288 8.73994 8.29737 8.4992 8.53674C8.25846 8.7761 7.97289 8.96564 7.65881 9.09451C7.34474 9.22338 7.00833 9.28904 6.66885 9.28775L6.68115 9.29267ZM25.5738 25.5737H21.1205V18.6024C21.1205 16.9426 21.091 14.8057 18.8066 14.8057C16.5221 14.8057 16.1336 16.6156 16.1336 18.4942V25.5737H11.6877V11.2451H15.9566V13.2123H16.0156C16.6107 12.0861 18.0615 10.8984 20.2279 10.8984C24.7377 10.8886 25.5738 13.8566 25.5738 17.7049V25.5737Z" fill="black"/>
</svg>
